<?xml version="1.0" encoding="UTF-8"?><svg id="a" xmlns="http://www.w3.org/2000/svg" viewBox="0 0 2068.43 2006.87"><g id="b"><circle cx="1037.02" cy="1011.35" r="972.34" style="fill:#fff; stroke:#af2026; stroke-miterlimit:10; stroke-width:28.75px;"/></g><g id="c"><path d="m1705.33,772.08c-.55,1.95-2.7,3.42-6.09,4.16-4.83,1.05-9.74,1.55-14.63,1.06-13.62-1.36-26.6,2.32-39.75,4.7-8.85,1.61-18.8,4.66-27.73,1.59.58-1.57-5.39.44-4.9-1.15-5.29,1.26-7.38.8-11.9,1.44-10.6,1.1-16.23,3.94-26.76,4.04-.21.37-14.07,4.26-15,4.62-11.93,4.57-11.49,3.26-25.2,5.92-6.26,1.22-12.26,3.75-18.45,5.39-15.24,4.01-30.97,5.72-46.17,9.96-10.97,3.07-21.01,7.29-29.72,15.33-6.74,6.23-12.89,13.16-20.79,18.34-10.6,6.94-21.98,7.26-33.44,5.56-16.63-2.47-30.19-11.29-42.72-22.35-12.62-11.15-22.76-24.46-34.3-36.51-12.82-13.39-25.3-27.23-41.6-36.87-6.62-3.91-11.97-9.94-18.49-14.06-15.38-9.73-32.35-15.63-49.96-20.2-14.75-3.83-30.07-4.85-44.58-9.57-16.66-5.41-32.33-13.28-48.52-19.88-17.38-7.09-34.84-14.23-53.32-17.41-16.15-2.77-32.9-4.97-47.58,6.06-8.75,6.58-12.35,16.03-13.63,26.32-1.42,11.49-4.92,21.22-16.54,26.15-1.29.55-2.45.66-3.66.61-11.7-.46-22.79,3.19-34.15,5.03-31.4,5.08-59.87,18.69-88.91,30.59-17.68,7.25-36.08,12.58-53.63,19.96-11.69,4.91-24.31,6.82-35.56,12.91-20.7,11.2-43.06,18.24-65.72,24.07-14.79,3.81-30.17,1.91-45.27,2.76-8.27.47-12.34-1.74-15-9.85-3.95-12.02-7.82-23.76-7.66-36.69.25-20.66-11.9-32.88-32.7-35.64-15.79-2.09-30.96.35-46.29,3.22-15.53,2.91-31.15,5.31-46.72,8.01-12.2,2.12-24.35,4.51-36.57,6.5-6.59,1.08-13.32,1.33-19.92,2.38-8.82,1.41-17.75.93-26.62,1.92-8.94,1-17.99-.19-26.86-2.6-4.44-1.21-9.15-1.04-13.44-3.47-.34-.19-.63-.38-.89-.56-6.22,7.03-9.94,15.68-9.94,26.56,0,1.11-3.32,2.21-4.42,3.32-.23,2.48-.45,4.93-.68,7.36.95-.91,2.2-1.25,3.37-1.51,7.68-1.67,15.44-2.93,22.6-6.48,1.17-.58,3.13-.6,4.26,0,2.86,1.52,6.16,1.48,8.58.61,5.97-2.15,10.16-.38,14.03,4.41-5.26,3.67-10.23,7.98-15.92,10.89-5.94,3.03-8.94,6.83-8.36,13.6.52,5.98,4.73,8.8,9.3,10.65,6.61,2.69,13.55,4.79,20.83,4.82,3.95.02,5.22,1.5,4.2,5.33-3.82,14.32,1.29,23.18,15.94,27.83,7.55,2.4,14.78,5.33,21.18,10.09,7.42,5.51,12.1,13.09,15.95,21.25,3.6,7.62,8.12,14.12,15.72,18.65,7.99,4.77,16.2,3.92,24.49,2.8,6.17-.83,12.39-1.8,18.33-3.98,1.02-.37,2.61-.85,3.43,1.41,2.01,5.54,4.38,11,5.33,16.8,1.5,9.11-5.94,14.05-13.37,12.35-10.03-2.29-19.34.49-28.72,2.69-4.29,1-6.4,7.69-5.33,13.7.74,4.17,5.94,8.62,10.82,9.27,19.29,2.56,38.4,1.35,57.2-3.45,4.76-1.22,9.16-3.84,14.03-5.06,9.8-2.45,15.91,3.76,14.42,13.75-.83,5.55-2.18,10.87-3.45,16.28-.57,2.43-1.32,2.68-3.42,2.87-6.81.6-13.44-1.3-20.21-1.21-5.83.08-11.43,1.6-17.08,2.65-4.56.84-7.68,7.05-7.01,12.12.93,7.04,4.43,10.58,10.57,10.68,2.55.04,5.1,0,7.65,0-8.75,4.88-18.04,7.16-27.3,9.48-17.01,4.26-34.08,8.96-51.84,6.97-11.25-1.26-22.57-.54-33.79-2.02-7.48-.99-14.92.74-22.39,1.09-4.64.22-9.48,5.51-10,10.6-.42,4.15,2.48,10.64,10.06,13.09-2.82,1.99-5.27,3.98-7.95,5.55-5.6,3.27-7.72,6.76-6.46,13.02,1.04,5.18,4.59,8.47,9.83,9.62,13.14,2.89,25.94,6.63,37.28,14.27,1.35.91,3.44,1.67,3.05,3.17-.42,1.59-2.33,2.23-4.36,2.6-5.42.99-10.72.07-16.07.05-15.21-.06-29.96,3.14-44.33,8.16-15.67,5.48-31.08,11.82-47.74,13.97-3.77.49-4.79,1.65-8.13,6.11-.84-5.88-1.74-11.71-2.64-17.52-.09.42-.17.84-.26,1.26-2.21,12.16-8.85,26.54-1.11,36.49.83,1.66,5.37,3.31,9.46,5.89-.47-2.07-.93-4.14-1.39-6.22,12.31.81,24.3-.41,36.35-1.67,8.99-.94,17.9-2.28,26.85-3.5,14.95-2.05,29.73-5.02,44.5-8.01,20.52-4.16,40.95-8.75,61.45-13.02,18.43-3.84,37.14-4.61,55.89-4.42,13.16.13,26.21-1.24,39.3-2.23,8.62-.65,17.15.95,25.72,1.34,11.09.5,18.21-5.34,24.49-12.78,4-4.74,8.09-9.61,10.57-15.52.57-1.36,1.78-2.82,3.71-2.87,13.26-.37,26.27-3.19,39.58-3.54,12.38-.33,21.87,4.17,30.41,12.55,4.83,4.74,10.2,8.89,17,11.03,7.5,2.36,13.59,10.84,13.36,21.26-.35,16.29-.91,32.79,3.07,48.86,1.36,5.5,4.99,9.63,10.08,12.13,2.93,1.44,5.38,3.61,6.88,6.11,6.26,10.39,15.02,17.29,26.5,20.97,12.33,3.95,22.92,10.85,32.71,19.19,9.12,7.76,20.55,10.49,31.81,11.29,8.68.62,13.51,5.45,17.65,11.09,6.76,9.21,15.52,14.64,25.7,19.38,12.68,5.9,25.64,3.54,38.55,4.13,1,.05,1.9-1.27,2.51,1.02,1.53,5.75,6.65,6.67,11.61,7.96,4.98,1.3,10.07,1.14,15.08,1.58,15.43,1.36,31.12,3.72,45.88-3.25,7.15-3.37,13.61-8.09,19.31-13.65,6.13-5.98,12.75-11.38,19.13-17.06,2.54-2.26,3.67-1.7,5.64.36,8.82,9.2,15.67,20.11,25.24,28.65,7.61,6.79,15.9,10.96,26.6,11.21,23.58.56,41.6-10.06,56.93-26.55,1.78-1.92,3.2-2.28,5.36-2.4,6.38-.35,12.78.8,19.15-.7,10.28-2.43,18.22-8.08,24.05-16.83,1.99-2.98,3.92-6,6.06-8.87,3.33-4.46,7.53-5.29,12.76-3.5,9.72,3.31,19.36,3.32,28.73-1.53,4.75-2.46,7.68-6.64,9.95-11.08,6.15-12.01,16.22-18.54,28.65-22.72,17.97-6.03,28.41-18.72,31.01-37.62,1.06-7.71,2.46-15.43,2.14-23.24-.16-3.85,2.64-4.75,4.91-6.4,8.08-5.88,14.56-13.58,22.66-19.53,13.12-9.64,28.07-14.8,43.38-19.2,9.53-2.74,19.23-4.82,29.29-4.57,3.25.08,4.73.8,6.18,4.19,3.64,8.54,7.48,17.04,14.01,24.08,6.7,7.23,15.48,9.48,24.4,11.5,6.78,1.54,13.78,1.23,20.73,1.21,15.81-.05,31.19-3.3,46.67-5.98,12.39-2.15,24.6-5.14,37.19-6.34,10.72-1.03,20.74-5.31,30.58-9.51,12.59-5.38,25.27-9.31,39.28-8.14,9.02.75,18.11-.52,26.73-3.35,5-1.64,8.89-6.03,14.87-5.61,4.48.31,8.98.23,13.48.24,4.13-2.78,9.07-6.1,12.93-9.96,3.32-2.21,5.53-8.85,6.64-12.16,3.32-9.95,6.64-24.33,0-32.07-2.32-2.32-4.82-4.83-7.12-7.53-.5,2.01-1.94,2.81-5.19,2.15-2.83-.57-5.87-.11-8.82-.11-21.64,2.82-34.71-10.06-46.63-25.27-6-7.65-11.34-15.93-19.66-21.54-7.64-5.16-15.72-7.34-24.97-5.52-12.06,2.38-24.17,1.66-36.28-.24-14.54-2.29-28.73-5.82-42.28-11.57-18.95-8.04-36.31-18.29-48.16-35.92-7.1-10.56-7.01-10.25,4.39-15.47,13.39-6.13,27.33-10.43,41.65-13.52,4.66-1.01,9.59-.32,13.96-3.14,6.31-4.08,9.01-14.1,1.32-19.12-3.69-2.41-2.95-3.96-.3-6.48,2.92-2.78,6.15-4.99,9.66-6.87,17.84-9.52,36.64-16.98,55.05-25.28,5.02-2.26,8.31-6.31,12.48-9.4,19.82-14.68,42.46-19.09,66.6-17.19,1.38.11,2.54.5,3.47,1.34.29-.9.6-1.81.96-2.7,4.77-12.39,12.16-16.39,17.07-29.52-.6-1.96-1.12-3.67-1.73-5.63-.55-1.75-2.61-4.46-3.17-6.2-1.71-.91-3.9-5.92-5.19-6.35-10.4-4.04-14.31-7.53-25.89-9.35Zm-1223.58,67.14c-1.6.12-8.04-6.92-7.69-8.29.06-.23.55-.38.86-.52,6.43-3.03,12.46-8.22,19.79-7.48,7.21.72,13.96,4.09,20.07,9.03-10.75,5.96-21.94,6.4-33.03,7.26Zm94.19-50.64c-2,2.41-4.96,3.68-7.48,3.77-7.68.26-14.7,2.87-21.88,4.95-2.98.87-3.79.23-3.01-2.79,1.69-6.53,7.94-11.16,16-11.61,2.01-.11,4.03-.02,6.49-.02,2.57.47,5.55-.2,8.69.69,4.38,1.25,3.16,2.61,1.18,5Zm254.73,363.82c-.8,9.25-.09,18.81-4.33,27.58-1.73,3.57-4.44,6.32-7.44,8.62-3.86,2.95-8,2.56-11.54-.91-5.6-5.49-7.72-12.75-9.67-20-1.63-6.06-1.14-12.32-1.15-19.85-.83-12.11,2.31-24.74,7.73-36.95,1.78-4.02,4.3-5.73,8.87-5.4,4.69.34,8.74,1.96,12.48,4.45,1.38.92,3.19,2.06,2.97,4.3-1.29,12.84,3.19,25.41,2.09,38.16Zm71.49,40.11c-5.72,10.09-13.67,18.64-22.49,27.21-2.42-4.74-4.92-8.72-6.54-13.03-1.94-5.14-2.58-10.18,1.42-15.27,4.75-6.04,4.81-14.01,7.01-21.11,2.32-7.48,10.5-12.95,17.73-11.45,2.14.44,4.21.98,6.37.89,1.9-.09,2.14.77,2.62,2.49,3.08,11.18-.89,21.08-6.12,30.29Zm56.86,27.91c.42,15.11-6.93,26.23-18.21,35.29-1.97,1.58-4.17,2.1-6.73,1.17-10.69-3.88-16.27-11.45-12.23-25.15,3.47-11.79,9.6-22.57,12.97-34.42.94-3.29,10.8-7.28,14.32-6.69,1.92.33,2.71,1.17,3.47,2.85,2.84,6.33,6.96,18.61,6.42,26.94Zm40.09-32.7c-2.62,2.95-3.53.37-4.66-1.17-6.35-8.62-9.7-18.53-12.22-28.78-.99-4.05-3.06-9.71-.19-11.78,2.98-2.15,8.04,1.08,11.9,2.98,8.37,4.13,13.27,10.64,13.87,19.12-.27,8.49-3.93,14.26-8.69,19.62Zm52.41,14.76c-1.41,12.8,1.58,26.16-4.76,38.44-1.92,3.72-3.18,8.13-3.39,12.3-.31,6.28-4.25,8.8-9.03,10.81-5.63,2.37-11.51,3.9-15.13,4.05-10.08.01-11.92-2.45-10.51-9.81,1.29-6.71,4.9-12.33,8.5-17.76,6.23-9.41,8.47-19.95,10.33-30.7.58-3.37.81-6.81,1.6-10.12,1.38-5.83,11.42-10.64,17.12-8.55,5.59,2.05,5.66,7.78,5.26,11.35Zm92.78,58.54c-12.64-3.65-13.16-4.65-6.85-13.83,3.94,3.85,9.35,6.85,6.85,13.83Zm69.4-5.44c-2.5-1.3-6.01-2.56-5.58-5.71.24-1.76.78-5.87,6.07-4.64,1.47.82,4.99.13,6.65,3.13.49.88-6.26,7.68-7.13,7.22Zm92.14-110.11c-2.08,3.4-4.56-.74-5.68-2.35-3.31-4.78-5.53-10.06-6.29-16.04-1.99-15.72-4.45-31.37-6.54-47.08-1.58-11.9-7.22-21.87-15.51-29.97-11.32-11.05-18.81-24.54-26.4-38.03-2.07-3.68-3.94-7.47-5.45-11.52-2.59-6.97-9.92-8.38-15.92-10.81-20.34-8.26-42.15-12.26-62.28-21.14-14.53-6.41-29.74-11.42-42.9-20.7-4.66-3.29-8.53-7.23-11.9-11.81-2.89-3.94-6.48-7.17-11.94-6.1-4.83.95-8.43,3.32-10.31,8.36-1.22,3.26-.81,5.91.54,8.78,7.19,15.26,18.97,26.5,32.97,35.07,15.09,9.23,30.11,18.7,46.05,26.47,4.65,2.27,9.46,4.21,14.23,6.21,6.54,2.74,13.66,3.43,18,11.08,3.77,6.64,12.41,8.86,18.65,13.41,9.48,6.92,15.08,16.2,19.07,26.82,5.5,14.65,9.28,30.05,18.81,42.96,2.41,3.26,3.03,7.59,3.06,11.22.14,13.84.89,27.5,3.39,41.2,2.63,14.38-3.34,27.64-7.84,40.94-.28.84-.57,1.68-.85,2.53-.93,2.83-1.6,4.02-4.98,1.58-5.2-3.74-9.64-8.12-13.47-13.07-2.91-3.76-1.44-8.76-2.33-13.17-2.07-10.25-2.1-20.81-1.17-31.18,1.77-19.88-5.26-36.88-16.38-52.47-12.69-17.79-29.02-31.78-47.73-42.97-28.83-17.24-60.42-28.22-91.6-40.12-8.31-3.17-17-4.42-26.02-4.25-9.45.17-15.52,8.93-13.61,17.81,2.53,11.7,10.26,18.77,20.02,24.51,12.3,7.24,25.53,11.87,39.41,14.75,3.16.65,6.52.52,9.79.51,21.16-.07,39.65,7.22,56.08,20.22,5.55,4.39,10.66,9.38,16.21,13.69,8.67,6.73,10.7,15.92,10.39,25.56-.42,13.11,2.72,25.34,6.12,37.72,2.38,8.67,4.3,17.52,4.05,26.65-.14,5.25-4.42,10.68-9.43,12.4-1.69.58-2.24,1.3-2.82-1.13-3.65-15.31-11.09-29.01-18.87-42.47-2.99-5.17-8.79-8.2-11.93-13.49-12.69-21.39-31.53-35.92-53.45-46.6-14.59-7.1-29.83-12.79-45.18-18.11-12.77-4.43-22.43-12.4-28.61-24.53-3.53-6.93-8.2-12.59-16.31-14.63-6.79-1.71-12.83.98-18.7,3.19-7.51,2.82-14.66,6.67-21.8,10.39-9.35,4.87-9.57,15.09-1.21,21.46,4.48,3.42,9.54,4.51,14.54,6.26,13.48,4.74,24.97,13.15,36.91,20.64,15.41,9.66,31.39,17.55,49.31,21.57,8.29,1.86,16.46,4.72,24.09,8.75,7.82,4.13,13.63,10.03,16.02,18.68.99,3.58,2.59,6.59,6.05,7.76,5.71,1.92,5.35,6.61,4.93,10.79-.41,4.05-3.1,6.14-7.61,4.66-5.83-1.92-10.65-5.79-16.26-8.13-3.14-1.31-6.11-3.05-9.67-2.91-3.84.15-4.39-3.78-6.7-5.58-12.1-9.37-26.45-14.01-40.27-19.71-9.67-3.99-18.43-9.45-27.39-14.68-12.59-7.35-21.76-7.04-32.73-.08-.44.28-1.35.41-1.37.68-.91,8.97-9.37,7.91-14.65,11-3.74,2.19-7.3-.83-10.99-.85-1.06,0-2.13-.65-3.16-.58-12.55.85-24.07-2.55-35.47-7.55-7.86-3.45-16.52-4.6-25.05-5.72-4.02-.53-8.04.66-11.85,1.33-8.23,1.46-13.01-2.23-17.64-8.16-4.21-5.38-6.22-11.64-8.62-17.74-6.12-15.58-16.67-24.97-33.75-27.67-9.45-1.49-16.62.19-22.72,7.39-2.37,2.8-4.93,5.55-7.82,7.79-8.99,6.96-16.19,6.6-27.08-.61-12.89-8.54-26.97-13.72-42.4-15.59-5.48-.66-9.87,2.18-14.91,2.89-9.8,1.37-19.63,2.6-29.44,3.84-4.29.55-7.19-.8-9.17-5.83-4.31-10.97-6.07-22.17-6.21-33.77-.15-12.82.81-25.73-1.28-38.41-1.67-10.14-2.95-20.62-10.08-29.05-1.39-1.65-1.87-4.16-1.95-6.57-.5-14.68-3.32-29.16-4.15-43.77-.71-12.51-1.46-25.22,1.75-37.64.09-.35.19-.71.19-1.06.06-4.32-.37-9.43,2.72-12.28,4.83-4.46,11.12-6.81,17.74-8.25,7.65-1.66,15.31-.55,24.05-1.18,17.96,1.96,35.78-3.12,53.17-10,6.7-2.65,11.87-8.08,18.02-11.71,12.81-7.57,26.28-13.9,40.3-18.98,14.62-5.3,28.67-11.95,42.85-18.25,30.04-13.35,60.43-25.69,92.47-33.53,1.91-.47,4.01.26,5.8-1.17.54-.43,1.67-.29,2.39.63,4.39,5.58,5.59,15.06,2.08,20.6-2.4,3.79-5.27,7.3-8.19,10.72-3.28,3.85-6.52,7.67-7.98,12.63-2.02,6.82-7.83,11.03-11.53,16.71-2.62,4.04-5.22,8.43-10.61,9.84-1.75.46-2.94,2.64-3.09,4.25-.77,8.07-5.29,14.74-7.76,22.15-3.02,9.03-4.18,18.1.64,27.15,4.29,8.04,11.41,12.37,19.36,15.48,19.19,7.5,38.76,6.9,58.62,2.63,13.3-2.86,26.27-6.71,39.2-10.83,4.78-1.52,9.19.09,13.74,1.3,6.6,1.75,12.86,4.47,18.93,7.33,11.58,5.45,21.56,2.34,31.36-4.06,1.34-.87,2.87-1.46,4.3-2.2,4.9-2.56,8.76-8.9,7.95-13.08-1.28-6.65-5.05-10.37-12.13-10.75-4.54-.25-5.76-.81-4.76-6.05.92-4.85,1.91-10.02,1.47-15.15-.19-2.16.32-3.01,2.88-3.36,7.37-1.02,15.19-.54,22.06-2.47,13.11-3.69,18.13,5.56,24.28,12.83,7.94,9.38,16.96,17.44,26.35,25.24,14.55,12.1,30.46,22.19,46.62,31.88,12.12,7.27,24.44,14.22,36.85,20.99,17.35,9.46,34.14,19.58,47.42,34.61,9.65,10.91,15.47,23.73,17.77,37.92,1.43,8.86,3.04,17.61,5.77,26.14,2.34,7.29,2.39,14.94,3.11,22.42,1.94,20.12,3.19,40.25,7.54,60.12,1.94,8.89-1.83,17.89-6.55,25.6Zm162.99-91.68c-.83,2.99-2.57,4.24-4.51,5.29-14.09,7.65-29.26,12.27-44.88,15.6-16.77,3.57-33.61,7.02-49.37,14.02-7.22,3.21-13.63,7.9-19.72,13.85-4.87-14.09-9.78-27.61-12.26-41.92-1.32-7.65-.87-15.3-1.04-22.95-.07-3.39.83-6.98-2.7-9.52-1.27-.91-.67-2.79-.58-4.2,1.98-29.74-10.98-53.57-29.38-75.45-10.32-12.27-22.25-21.77-37.7-26.82-5.27-1.72-9.08-6.56-12.02-10.95-6.62-9.89-16.98-13.96-26.9-18.16-14.98-6.35-28.82-14.06-41.56-24.28-11.86-9.51-24.86-17.55-38.08-25.12-6.2-3.56-12.4-7.14-18.47-10.91-1.49-.92-2.88-2.43-3.64-4-1.62-3.36-5.2-5.45-7.7-5.21-5.94.58-8.27-3.46-11.37-6.69-7.38-7.67-15.94-8.78-25.93-6.05-10.89,2.97-20.49,9.58-31.72,11.23-14.65,2.15-22.34,11.96-27.74,24.3-5.63,12.84-17.12,18.57-28.71,23.96-12.29,5.71-25.6,8.7-39.01,8.82-9.47.08-19.34-1.31-26.54-9.57-6.15-7.05-6.57-17.79.21-24.21,11.49-10.89,20.05-24.21,30.32-36.12,7.68-8.9,15.29-17.87,22.73-26.98,5.89-7.22,12.16-14.05,16.46-22.63,7.76-15.49,17.03-30.17,27.35-44.13,1.66-2.25,4.39-3.14,6.94-3.88,18.27-5.33,36.12-5.28,53.56,3.61,17.76,9.05,34.9,19.15,50.73,31.18,9.65,7.33,18.65,15.68,25.45,26.07,2.82,4.31,4.33,9,5.72,13.76,1.67,5.77,4.44,8.15,10.79,8.21,6.54.07,11.26-2.89,12.4-8.21.41-1.91.91-2.96,2.68-4.17,14.2-9.74,24.65-4.85,32.78,8.15,1.99,3.18,3.71,6.58,5.14,10.04,5.27,12.78,12.16,12.49,22.45,6.86,2.97-1.62,5.83-3.68,8.2-6.07,2.08-2.1,3.55-1.82,6.02-.79,17.09,7.13,26,22.01,35.72,36.42,12.96,19.22,21.65,40.84,34.31,60.14,4.44,6.76,7.21,14.27,11.69,20.91,1.04,1.54,1.15,3.71,1.66,5.6,1.87,6.9,6,12.78,8.73,19.31,2.08,4.98,6.91,5.85,12.03,5.48,4.97-.35,7.48-3.85,9.01-7.6,2.57-6.3,4.18-12.78,2.24-19.91-1.6-5.86.7-11.95,1.29-17.89.19-1.9,3.97-3.99,6.5-5.02,9.21-3.75,18.75-4.72,28.69-3.2,9.95,1.52,19.53,4.32,29.17,7.02,2.01.56,2.3,1.11,2.78,2.96,2.12,8.1,2.3,16.43,3.12,24.66.67,6.8.28,13.77,3.91,19.94.73,1.25.64,2.49.56,3.72-1.24,19.25,4,37.53,8.21,55.99,3.41,14.98,6.32,30.03,2.02,45.5Zm226.98,19.74c.68,1.87.63,3.27-1.1,4.15-1.81.93-3.19,0-3.9-1.72-.92-2.26-1.68-4.58-2.93-8.07,3.66,1.76,6.7,2.27,7.92,5.64Zm-152.46-213.12c-15.77,2.55-31.26,2.9-46.76-1.23-4.52-1.2-8.74-3.05-12.85-5.22-1.26-.67-3.04-.94-2.85-2.77.14-1.38,1.68-1.65,2.78-2.29,9.09-5.26,19.17-7.68,29.2-10.24,15.68-4.01,31.42-8.42,47.68-8.02,11.78.29,23.71,1.4,35.1,5.23.83.28,1.79.07,2.5.87.57.65,1.33,1.13,2.15,1.8-17.46,12.21-36.51,18.56-56.94,21.86Z" style="fill:#226432; stroke-width:0px;"/></g><g id="d"><path d="m465.91,746.26c15-6.81,29.37-14.89,42.82-24.38,4.07-2.87,8.47-3.57,12.71-5.31,8.61-3.53,16.4-8.67,23.53-14.64,18.3-15.32,36.47-30.77,51.69-49.37,3.43-4.19,7.47-7.97,10.98-12.18,1.63-1.95,3.63-5.12,5.99-3.09,2.21,1.89,4.91,5.16,2.63,8.96-1.95,3.24-3.97,6.46-6.22,9.5-15.95,21.5-36.21,38.23-58.4,52.85-8.36,5.51-16.56,11.27-24.79,16.98-4.19,2.91-6.71,7.04-5.46,12.05,1.22,4.88,3.43,9.35,9.8,9.93,3.65.33,7.19,1.82,10.96,2.23,8.62.92,12.94-5.7,18.17-10.29,10.68-9.37,21.83-17.87,34.38-24.69,5.45-2.96,10.32-6.94,16.23-9.27,2.23-.88,3.87-1.71,5.95.02,2.1,1.75,1.71,3.56,1,5.87-1.59,5.17-1.32,9.93,3.78,13.46,4.66,3.22,9.21,3.15,14.23.98,1.89-.82,3.04-1.94,3.77-3.61,6.15-14.09,15.47-26.04,24.88-38.04,10.45-13.32,21-26.67,26.99-42.91,2.1-5.7,1.8-10.75-2.53-14.85-3.23-3.06-7.61-4.75-12.01-2.81-2.53,1.11-4.97.92-7.96,1.49,4.27-15.3,10.7-29.27,18.51-42.7,6.87-11.82,16.56-21.61,23.69-33.2,5.15-8.37,7.34-17.6,5.85-27.37-.97-6.38.08-12.93-3.49-19.17-2.08-3.63,2.54-7.18,4.63-10.33,5.91-8.92,12.52-17.37,18.57-26.19,4.77-6.95,11.32-11.49,18.6-15.29,5.06-2.64,10.44-4.88,14.98-8.24,6.43-4.76,13.2-5.88,20.88-5,7.69.88,15.19,2.11,22.24,5.47,8.89,4.24,15.18,14.07,15.37,26.63-3.21-1.71-5.59-4.19-8.55-5.78-4.77-2.57-9.67-2.94-14.7-1.9-2.67.55-4.71,2.25-5.77,5.15-4.5,12.29-5.11,19.24,4.7,28.27,10,9.21,16.91,20.41,23.35,32,8.5,15.29,15.83,31.2,22.34,47.41,8.08,20.11,16.81,39.83,28.93,57.88,8.56,12.76,18.99,23.7,33.16,30.05,13.06,5.86,26.78,5.14,40.25,1.08,3.61-1.09,5.85-4.71,6.15-8.34.37-4.42-.71-8.43-4.56-11.93-6.07-5.51-14-6.32-20.82-9.8-13.27-6.77-23.16-17.17-31.14-29.47-8.66-13.36-15.61-27.66-23.02-41.73-5.15-9.77-12.34-18.44-18.09-27.93-4.05-6.67-8.23-13.4-9.36-21.48-.68-4.87,1.27-6.15,5.84-6.2,12.59-.14,24.25,4.24,36.22,7.04,11.45,2.68,22.73,6.06,34.12,8.97,14.13,3.61,24.59,12.81,34.42,22.76,12.4,12.54,21.72,27.58,32.06,41.72,11.08,15.14,24.73,24.09,43.35,26.92,15.3,2.33,30.52,5.61,45.4,10.15,1.37.42,2.84.66,4.05,1.35,1.94,1.1,5.57.65,5.51,3.43-.04,2.02-3.29,2.02-5.19,2.85-1.53.66-2.7,2.42-3.72,3.91-3.89,5.68-4.88,12.49-4.71,18.87.14,5.39,4.92,9.19,10.6,9.55,20.66,1.32,41.32,1.74,59.46-10.68,8.72-5.97,15.95-13.64,22.58-21.85,2.8-3.46,5.46-6.52,10.36-8.12,5.41-1.77,9.99-6.14,14.83-9.51,2.68-1.87,5.18-3.06,7.94-.23.33.34,1.05.27,1.49.55,2.74,1.75,7.87,1.36,7.68,5.64-.15,3.44-4.35,4.82-7.25,6.49-6.35,3.64-12.91,6.93-19.1,10.81-3.15,1.98-6.26,4.53-8.37,7.53-2.7,3.84-2.92,8.45-.16,12.66,2.63,4.01,9.45,6.91,13.89,5.68,18.09-5,34.02-13.51,47.49-27.03,9.42-9.46,14.58-20.56,17.87-33.11,3.56-13.59,12.23-23.92,22.79-32.73,1.77-1.48,3.55-3.59,3.42-5.06-.56-6,2.99-9.46,6.55-13.26,6.61-7.05,12.12-14.85,15.97-23.84,2.64-6.16,1.04-14.03-4.3-16.55-6.91-3.26-13.85-1.87-17.16,5.25-5.48,11.76-14.61,20.19-25.58,27.23-30.14,19.33-59.94,39.2-89.83,58.92-1.08.71-1.6,1.14-3.18.89-9.92-1.59-17.19-6.7-22.5-15.84,3.77-.87,7.16-1.87,10.62-2.39,3.65-.56,6.79-2.76,7.3-5.71.69-3.96,3.41-5.69,5.86-7.33,19.85-13.37,36.61-30.16,53.38-47.02,13.61-13.69,27.01-27.61,41.57-40.36,7.16-6.27,16.21-7.14,24.48-10.15,12.22-4.45,24.85-7.4,36.8-13.06,11.74-5.55,24.2-3.83,35.57,3.44,14.75,9.43,23.72,23.27,30.11,38.97,5.09,12.49,11.83,23.51,23.27,31.13,8.07,5.38,13.39,12.73,17.14,21.66,10.22,24.33,21.31,48.29,33.23,71.82,12.25,24.18,27.02,46.88,45.51,66.82,7.03,7.59,15.82,13.33,25.34,17.67,4.83,2.21,6.04,5.74,5.73,11.08-.43,7.22,2.61,13.93,5.54,20.52,2.88,6.47,7.17,11.94,11.45,17.41.91,1.16,1.55,1.75,1.2,2.49,10.48-1.04,20.95-2.5,31.41-4.55,4.45-1.05,9.5-2.4,14.66-4.13,1.53-7.31,2.16-14.76,2.62-22.21.59-9.5-5.47-15.27-12.23-20.73-7.5-6.05-16.58-8.51-25.23-11.95-15.48-6.16-30.18-13.89-42.92-24.55-14.89-12.46-26.24-27.82-34.5-45.6-12.02-25.87-24.84-51.36-37.09-77.12-15.09-31.72-29.48-63.77-45.09-95.23-7.58-15.29-18.05-28.52-34.7-35.75-13.87-6.02-26.6-4.25-39.37,2.71-11.26,6.14-22.08,13.27-34.83,16.24-9.09,2.12-18.16,4.42-26.83,7.85-13.7,5.43-24.82,14.8-35.72,24.4-15.66,13.78-29.58,29.3-44.14,44.17-15.74,16.08-32.58,30.9-52.33,42.05-9.14,5.16-18.76,7.61-29.45,6.73-6.66-.55-13.4.82-20.21.63-19.1-.51-37.83-3.17-56.11-8.55-10.99-3.24-21.54-7.68-31.59-13.41-4.92-2.81-8-7.32-12.3-10.58-11.84-8.97-21.7-20.1-32.87-29.79-11.46-9.94-24.04-16.9-40.14-16.79-19.55.13-35.37-8.63-49.11-22.48-14.88-15-26.54-32.95-43.51-46.05-11.81-9.11-24.7-13.93-39.54-14.98-17.66-1.26-33.71,3.14-48.21,12.67-12.67,8.33-22.5,19.63-31.35,32.03-14.47,20.27-25.33,42.67-38.71,63.54-10.39,16.21-22.37,31.06-39.1,41.52-7.91,4.94-12.39,13.19-16.76,21.07-13.35,24.05-31.91,43.22-54.43,58.6-11.36,7.76-19.69,17.93-26.79,29.44-8.79,14.25-20.78,25.38-34.54,34.75-13.62,9.27-27.42,18.18-42.44,25.12-5.2,2.4-7.26,11.72-4.49,17.32,2.45,4.95,8.97,7.26,15.16,4.45Z" style="fill:#226432; stroke-width:0px;"/></g><g id="e"><path d="m1442.18,1270.56c-86.02,132.23-235.11,219.82-404.27,219.82s-316.46-86.56-402.73-217.46c-4.8-7.3-9.42-14.73-13.82-22.29l-6.18-9.8-43.25,25.63c6.1,11.05,12.61,21.85,19.5,32.4,20.13,30.89,43.49,59.68,69.92,86.11,48.9,48.9,105.85,87.3,169.26,114.13,65.68,27.77,135.42,41.86,207.3,41.86s141.63-14.09,207.3-41.86c63.41-26.83,120.36-65.22,169.26-114.13,26.82-26.82,50.47-56.05,70.79-87.44,7.04-10.87,13.68-22,19.89-33.37l-43.12-26.99c-6.18,11.41-12.81,22.55-19.86,33.39Z" style="fill:#226432; stroke-width:0px;"/><path d="m1507.41,1265.14l-44.64-27.96c-6.4,11.82-13.26,23.34-20.57,34.57l44.61,27.93,151.7,94.98,23.72,14.86c7.18-11.32,14.03-22.86,20.58-34.58l-23.71-14.85-151.69-94.96Z" style="fill:#226432; stroke-width:0px;"/><path d="m615.17,1240.83l-43.25,25.63-138.06,81.83-18.07,10.7-10.01,5.93-14.03,8.33c6.12,11.03,12.52,21.88,19.2,32.57l13.94-8.26,10.14-6,17.96-10.64,138.42-82.05,43.76-25.94.18-.1-14-22.19-6.18-9.8Z" style="fill:#226432; stroke-width:0px;"/></g><g id="f"><path d="m1557.1,1516.09c-4.41-9.21-9.03-18.39-13.25-27.75-11.61-25.71-22.98-51.53-34.68-77.2-1.29-2.84-.25-4.16,1.52-5.52,9.08-6.94,16.35-15.76,24.59-23.57,4.35-4.13,8.26-8.75,13.53-11.87,7.53,22.98,15.08,45.94,22.6,68.92,9.59,29.31,19.16,58.63,28.68,87.96.62,1.92,1.34,3.7,2.78,5.14,8.46,8.38,16.61,17.05,24.79,25.71,15.63,16.55,31.69,32.69,47.72,48.87,2.25,2.27,2.14,3.44-.06,5.61-10.2,10.02-20.28,20.16-30.84,29.82-2.63,2.41-3.67.95-5.21-.7-20.07-21.65-41.49-42.07-61.12-64.05-9.34-10.46-20.66-14.99-32.51-19.77-25.13-10.12-50.39-19.93-75.6-29.87-18.74-7.39-37.44-14.89-56.26-22.06-4.03-1.53-4.56-2.6-1.24-5.45,12.27-10.52,23.45-22.19,34.74-33.72,2.54-2.6,4.37-1.5,6.69-.35,33.07,16.42,66.14,32.85,99.26,49.16.94.46,1.92,1.92,3.86.67Z" style="fill:#226432; stroke-width:0px;"/><path d="m1276.65,1636.8c-.76-.13-1.03-1.08-1.55-2.02-7-12.68-13.9-25.41-21.24-37.89-1.96-3.33-.37-4.56,1.84-5.8,10.13-5.69,20.36-11.22,30.51-16.89,24.83-13.87,49.61-27.83,74.45-41.68,12.96-7.23,26.06-14.22,38.97-21.55,2.28-1.29,2.88-.32,3.74,1.21,5.16,9.2,10.33,18.4,15.46,27.62.87,1.56,1.28,3.42,2.34,4.81,2.19,2.86,5.23,6.41,4.58,9.18-.52,2.21-5.46,3.36-8.42,5-14.09,7.8-28.15,15.63-42.27,23.38-1.76.97-2.35,1.92-1.31,3.76,12.37,21.98,24.77,43.94,37.06,65.97,18.21,32.64,36.32,65.34,54.5,98,3.22,5.78,6.6,11.48,9.86,17.24.81,1.44.83,2.39-1.11,3.44-12.43,6.7-24.79,13.55-37.05,20.56-2.98,1.71-4.15,2.12-6.16-1.62-10.18-18.9-20.86-37.53-31.37-56.24-17.08-30.41-34.31-60.74-51.17-91.27-5.45-9.86-11.12-19.61-16.31-29.59-2.26-4.35-3.83-4.11-7.51-1.98-15.02,8.69-30.23,17.05-45.37,25.51-.62.34-1.35.48-2.44.86Z" style="fill:#226432; stroke-width:0px;"/><path d="m1191.35,1763.66c4.37,18.44,8.82,36.8,13,55.23.86,3.8,2.46,4.84,6.09,3.91,27.34-7.01,54.78-13.59,82.25-20.06,3.48-.82,3.53.37,4.04,2.45,3.39,14.07,6.73,28.14,10.1,42.21.66,2.73-1.18,2.72-3.04,3.16-27.82,6.58-55.62,13.22-83.42,19.88-15.29,3.66-30.63,7.15-45.81,11.22-4.37,1.17-5.69,1.15-6.87-3.86-7.72-32.67-16.24-65.16-23.88-97.85-4.96-21.23-10.09-42.41-15.29-63.57-6.91-28.11-13.42-56.31-20.35-84.4-.97-3.93.41-5.06,3.68-5.8,14.47-3.28,28.95-6.51,43.36-10,18.75-4.54,37.44-9.32,56.16-13.95,9.19-2.27,18.43-4.36,27.61-6.68,2.16-.55,2.63-.16,3.12,2.08,2.86,13.09,5.55,26.26,9.27,39.11,1.54,5.3.53,6.93-4.42,8.07-25.24,5.83-50.43,11.92-75.67,17.75-2.87.66-4.2,1.29-3.38,4.57,3.8,15.25,7.47,30.53,11.08,45.82.73,3.11,2.78,3.06,5.02,2.51,21.68-5.31,43.35-10.68,65.03-16.01,1.05-.26,2.18-.15,3.24-.36,2.72-.54,6.99-2.48,7.81-1.5,1.87,2.25,2.16,5.88,2.9,8.99,2.7,11.3,4.93,22.73,8.16,33.87,1.16,3.99-.54,4.43-3.1,5.04-20.69,4.93-41.38,9.8-62.08,14.69-4.86,1.15-9.72,2.32-14.62,3.49Z" style="fill:#226432; stroke-width:0px;"/><path d="m1024.24,1855.57c0-9.03.55-18.09-.1-27.07-1.91-26.07.26-52.2-1.23-78.22-1.39-24.26.32-48.51-1.07-72.7-.87-15.05-.62-30.05-.91-45.08-.04-2.21-.52-4.38,3.13-4.2,14.12.68,28.17-1.75,42.31-1.14,3.16.14,4.5.51,4.39,4.16-.91,28.48,1.7,56.92,1.06,85.4-.2,8.84-.59,17.72.07,26.52,1.97,26.07-.28,52.2,1.24,78.22,1.24,21.32.13,42.59.96,63.86.17,4.23-1.07,5.27-5.15,5.06-13.01-.68-26.01.22-38.98,1.1-4.41.3-6.04-.67-5.83-5.52.44-10.11.13-20.26.13-30.39Z" style="fill:#226432; stroke-width:0px;"/><path d="m911.91,1884.95c-28.53-.91-55.32-7.24-79.16-24.02-18.82-13.25-30.07-31.58-37.27-52.83-3.36-9.91-4.91-20.13-5.72-30.63-2.37-30.52,4.68-59.14,16.04-87.06,6.31-15.52,15.41-29.4,27.05-41.15,18.36-18.54,40.23-31.09,66.76-34.19,32.4-3.8,62.08,3.85,89.48,21.09,4.09,2.57,6.28,5.3,3.31,10.99-5.94,11.38-10.85,23.3-15.98,35.1-1.56,3.59-3.6,2.12-5.22.74-9.62-8.23-20.94-12.92-32.92-16.32-28.95-8.23-55.04-.03-73.47,24.24-12.17,16.03-17.57,34.47-20.89,53.97-2.66,15.62-2.27,30.85,2.84,45.79,8.23,24.07,25.67,37.75,50.03,43.24,13.26,2.99,26.65,3.19,40.08,1.19,2.06-.31,3.55-.14,3.4,2.68-.54,10.16-.73,20.34-2.15,30.45-.3,2.17-.44,4.48-.03,6.61,1.25,6.36-2.31,7.94-7.6,8.93-6.18,1.16-12.35.88-18.58,1.19Z" style="fill:#226432; stroke-width:0px;"/><path d="m634.9,1779.84c-22.59-.67-42.62-8.32-60.74-21.72-16.16-11.96-27.16-27.43-33.24-46.48-3.88-12.15-5.8-24.76-5.08-37.37,1.71-30.17,12.13-57.51,28.39-82.9,9.48-14.8,20.45-28.26,33.53-39.87,17.03-15.12,36.73-25.42,59.09-30.34,28.37-6.23,53.7,1.27,76.92,17.43,21.42,14.91,33.91,35.44,38.56,61.19,4.78,26.49.04,51.5-10.03,75.89-11.69,28.31-28.87,52.92-51.71,73.23-18.3,16.27-39.53,26.98-64.3,29.92-3.8.45-7.55.89-11.38,1.02Zm-47.32-96.63c-.54,12.66,3.09,25.34,13.16,34.78,12.89,12.09,28.37,16.33,45.66,10.22,14.9-5.26,27.07-14.36,37.47-26.27,12.52-14.34,22.82-29.95,29.91-47.62,7-17.44,10.95-35.25,6.49-54.09-4.66-19.66-22.39-32.56-41.1-32.6-21.27-.04-37.01,11.89-51.16,25.73-8.55,8.37-15.64,18.29-21.59,28.88-10.49,18.64-19.03,37.86-18.84,60.97Z" style="fill:#226432; stroke-width:0px;"/><path d="m380.38,1503.28c3.57,16.15,9.22,31.07,19.28,44.01,7.55,9.72,15.5,18.81,28.49,21.47,9.89,2.02,20.77-2.32,26.83-10.84,7.5-10.55,6.04-21.61,2.39-32.86-3.9-12.03-8.67-23.84-11.7-36.09-5.6-22.66-4.53-44.84,9.32-64.78,13.05-18.8,30.61-31.7,53.38-35.45,24.04-3.96,45.22,3.25,63.9,19.05,13.2,11.16,23.25,24.57,31.41,39.53,2.79,5.12,4.39,10.9,6.62,16.33,1.2,2.92.34,4.41-2.48,6.01-11.96,6.81-23.73,13.96-35.58,20.98-2.17,1.29-3.63,2.49-4.65-1.61-4.48-18-13.9-33.29-28.14-45.05-8.59-7.09-19.33-10.09-29.91-3.57-9.22,5.68-13.67,14.74-12.36,24.68,1.56,11.86,5.68,23.2,9.84,34.43,8.01,21.62,11.61,43.47,3.25,65.88-4.92,13.18-13.46,23.96-23.9,33-10.63,9.2-22.67,15.86-36.75,19.1-20.8,4.78-39.81.63-57.14-10.57-20.73-13.39-36.81-31.36-47.53-53.81-3.01-6.29-5.17-12.91-6.96-19.63-.37-1.38-1.17-3.34,1.17-4.75,13.73-8.33,27.33-16.86,41.24-25.47Z" style="fill:#226432; stroke-width:0px;"/></g><g id="g"><g id="h"><path d="m1910.36,1293.78c-20.67-7.84-41.35-15.65-62.01-23.52-18.83-7.17-37.64-14.41-56.4-21.6-2.63,6.98-5.31,14.09-7.86,20.88,31.75,11.62,63.02,24.55,95.13,35.63-4.35-.38-8.35,1.55-12.53,1.56-10.91.03-21.69,1.88-32.35,3.6-21.44,3.47-42.76,7.66-64.26,10.78-4.32.63-7.39,2.31-8.65,7.05-1.18,4.45-3.11,8.73-5.01,12.95-1.57,3.51-.7,5.27,2.94,6.56,11.42,4.05,22.79,8.27,34.1,12.6,27.29,10.46,54.55,21.01,81.8,31.6,1.79.7,1.89.54,2.53-1.38,1.77-5.4,4.2-10.57,6.35-15.84.69-1.68,1.3-2.9-1.39-3.86-30.3-10.89-59.85-23.84-91.4-32.65,9.4-.92,18.25-1.65,27.06-2.68,8.95-1.05,17.89-2.19,26.77-3.67,15.92-2.66,31.75-5.95,47.71-8.31,8.19-1.21,14-3.93,15.76-12.8.75-3.79,2.32-7.55,4.22-10.93,2.01-3.57.35-4.86-2.51-5.95Z" style="fill:#226432; stroke-width:0px;"/><path d="m1873.03,706.73c-5.41.07-9.83,2.76-14.3,4.52-25.92,10.21-52.79,17.65-78.91,27.25-2.62.96-4.27.77-5.11-2.52-1.28-5-2.88-9.95-4.84-14.72-1.15-2.8-.21-3.12,2.19-3.91,39.32-12.94,78.59-26.01,117.87-39.06,2.39-.79,3.74-.77,4.6,2.36,1.88,6.87,4.29,13.62,6.81,20.29.73,1.93.38,2.97-.81,4.33-12.3,14.08-24.82,27.97-36.75,42.36-9.84,11.86-20.69,22.7-31.51,33.6-2,2.01-3.96,4.06-6.04,6.33,5.4-2.16,10.77-4.38,16.19-6.47,24.31-9.38,49.3-16.81,73.89-25.39,2.55-.89,2.85-.06,3.52,2.17,1.77,5.98,4.02,11.82,6.08,17.72-5.64,2.02-11.25,4.14-16.94,6.04-34.36,11.48-68.74,22.88-103.08,34.39-2.98,1-4.78,1.01-5.46-2.63-.56-2.97-1.01-6.25-2.6-8.68-5.47-8.4-2.01-14.48,3.93-20.78,9.23-9.79,18.2-19.85,26.87-30.13,11.9-14.1,24.36-27.66,37.39-40.73,2.16-2.17,5.42-3.08,7.01-6.35Z" style="fill:#226432; stroke-width:0px;"/><path d="m1858.59,956.39c9.57,0,19.21.74,28.7-.15,20.54-1.93,41.09-.17,61.6-1.09,4.17-.19,5.67,1.63,5.98,4.85,1.45,15.07,3.48,30.18,2.16,45.3-1.1,12.64-3.47,25.06-10.8,36.1-8.28,12.47-19.36,20.76-33.84,24.1-14.62,3.37-29.35,3.05-43.72-1.45-24.26-7.6-36.77-25.39-41.92-49.34-2.34-10.84-3.27-21.9-3.09-32.9.12-7.25.96-14.54.87-21.84-.05-3.54,2.22-3.61,4.81-3.6,9.75.04,19.51.02,29.26.02Zm79.8,39.55c0-3.32.04-5.72,0-8.11-.19-8.68-.62-9.05-8.94-8.25-1.28.12-2.58.02-3.86.02-26.24.06-52.49-.35-78.71,1.05-2.32.12-3.73.22-3.6,3.18.24,5.5-.24,11.05.12,16.54,1.04,15.86,7.71,28.64,22.16,36.12,12.95,6.71,26.77,7.45,40.98,4.39,13.47-2.9,23.1-10.27,28.27-23.1,2.93-7.28,4.09-14.92,3.6-21.85Z" style="fill:#226432; stroke-width:0px;"/><path d="m1663.29,364.03c.02,17.81-7.42,32.44-18.71,45.77-8.94,10.55-19.48,18.43-32.37,23.37-19.06,7.31-36.89,4.11-53.15-7.16-11.09-7.69-20.16-17.53-24.56-30.86-6.93-20.96-1.58-39.79,10.52-57.05,6.94-9.9,15.68-18.21,26.31-24.44,7.69-4.51,15.81-6.99,24.61-8.37,15.36-2.41,29.08,1.99,41.1,10.47,16.36,11.53,26.51,27.24,26.25,48.28Zm-23.27-5.76c1.9-20.01-19.97-38.74-43.3-29.98-19.8,7.44-32.94,21.8-39.85,41.84-4.49,13.03-2.68,25.21,6.82,35.06,10.06,10.42,22.8,12.3,36.32,7.37,11.07-4.04,19.49-11.96,26.79-20.74,7.74-9.32,13.42-19.9,13.24-33.55Z" style="fill:#226432; stroke-width:0px;"/><path d="m1860.16,605.55c-3.75-6.3-7.02-12.9-10.16-19.54-1.97-4.17-3.77-6.72-9.23-4.58-2.38.93-5.62,1.05-8.46,1.48-12.09,1.79-24.14,3.82-36.19,5.83-14.52,2.42-29.04,4.91-43.56,7.36-13.56,2.29-27.13,4.58-41.3,6.97,3.72,7.05,7.12,13.52,10.56,19.97.77,1.44,1.99,2.04,3.67,1.71,10.69-2.12,21.4-4.18,32.08-6.36,2.27-.46,3.59-.02,4.7,2.18,5.09,10.07,10.19,20.14,15.65,30.02,1.83,3.31.94,5.17-1.44,7.47-7.27,7.05-14.25,14.4-21.59,21.38-2.34,2.23-2.5,4.04-1.04,6.62,3.52,6.24,6.93,12.53,10.56,19.11,3.33-2.09,4.82-5.83,7.54-8.53,21.47-21.25,42.78-42.65,64.14-64.01,7.55-7.55,15.13-15.08,22.62-22.7,1.08-1.1,3.06-1.67,1.45-4.38Zm-24.86-2.13c-14.18,12.36-27.79,25.34-41.45,39.47-5.05-10.03-9.89-19.65-14.97-29.73,16.73-2.89,33.08-5.52,49.2-9.32,2.09-.49,4.21-.81,6.32-1.21.36-1.01,1.03-1.21,1.94-.72l-1.05,1.5Z" style="fill:#226432; stroke-width:0px;"/><path d="m1327.43,279.35c7.32-8.28,15.5-15.61,22.8-23.85,10.94-12.34,22.9-23.76,34.29-35.7,11.48-12.03,22.86-24.16,34.12-36.4,2.53-2.75,4.56-3.14,7.91-1.38,6.64,3.49,13.59,6.4,20.35,9.65,1.86.89,3.03,1.52,2.36,4.73-1.93,9.15-2.6,18.55-3.89,27.84-1.68,12.12-3.52,24.21-5.2,36.33-1.29,9.28-2.38,18.59-3.64,27.88-1.29,9.45-2.56,18.9-4.08,28.31-.66,4.09.7,8.44-2.56,12.38-6.23-3.13-13.14-6.72-20.18-10.04-1.7-.8-2.1-1.76-1.89-3.33,1.49-10.87,2.54-21.83,4.75-32.55.74-3.6-.79-4.05-2.79-5.02-10.31-4.98-20.74-9.72-30.94-14.92-2.91-1.49-4.27-.5-6,1.43-7.06,7.85-14.21,15.62-21.25,23.49-1.46,1.63-2.63,1.79-4.6.7-6.25-3.46-13.2-5.49-19.55-9.55Zm99.75-76.35c-13.4,16-26.27,30.2-39.92,44.19,10.57,4.67,19.68,10.64,30.26,14.16,3.17-19.33,5.11-38.25,9.66-58.35Z" style="fill:#226432; stroke-width:0px;"/><path d="m1824.13,942.38c-1.4-7.75-2.71-14.93-4.01-22.12-.5-2.79.86-4.22,3.34-5.4,7.77-3.7,15.41-7.65,23.11-11.51,8.57-4.3,8.54-4.57,6.47-13.95-1.66-7.52-3.1-15.12-4.11-22.76-1.15-8.8-.95-8.76-10.26-9.75-9.15-.97-18.26-2.24-27.41-3.25-1.6-.18-2.02-.69-2.27-2.27-.94-6.02-2.14-12-3.22-18-.52-2.89.22-4.63,3.66-4.08,16.15,2.59,32.28,5.26,48.45,7.66,16.03,2.38,32.1,4.47,48.15,6.72,10.34,1.45,20.65,3.06,31,4.41,5.83.76,4.97,5.6,5.67,9.18,1.14,5.82,1.11,11.92,2.66,17.6.91,3.33.29,4.42-2.44,5.79-11.2,5.63-22.32,11.42-33.45,17.19-22.59,11.71-45.17,23.43-67.74,35.17-5.84,3.04-11.62,6.17-17.6,9.36Zm100.34-76.2c-4.85-.14-9.52-1.24-14.18-1.37-13.41-.38-26.48-3.27-39.67-5.08-5.26-.72-4.46,1.47-3.93,3.94,1.79,8.41,3.27,16.87,4.21,25.41.35,3.16,1.82,3.08,3.87,1.99,3.94-2.09,7.76-4.43,11.71-6.51,12.42-6.54,25.18-12.38,37.99-18.39Z" style="fill:#226432; stroke-width:0px;"/><path d="m1800.87,1234.98c-3.48.41-4.6-.65-3.6-4.35,1.63-6.04,2.81-12.2,4-18.35.29-1.52.06-2.7,2.25-2.85,8.87-.6,17.72-1.39,26.58-2.18,3.05-.27,6.09-.8,9.14-1.06,1.41-.12,1.65-.78,1.92-2.04,2.47-11.72,5.09-23.4,7.59-35.12.49-2.31-.11-3.9-2.65-5.19-8.45-4.3-16.64-9.13-25.04-13.55-4.01-2.11-6.44-3.9-4.57-9.45,1.62-4.79,2.6-10.01,3.44-15.1.53-3.23,1.65-2.42,3.43-1.38,18.09,10.53,36.14,21.13,54.3,31.53,16.61,9.51,33.22,19.02,50.04,28.14,12.28,6.67,12.72,7.06,9.27,20.62-1.06,4.16-2.48,8.3-2.86,12.52-.31,3.45-2.01,4.21-4.77,4.46-16.06,1.47-32.15,2.67-48.17,4.5-17.8,2.03-35.58,4.13-53.45,5.53-8.99.7-17.91,2.18-26.87,3.31Zm58.25-28.85c19.65-1.62,39.04-4.83,58.77-4.86-17.73-8.81-34.96-18.25-51.94-28.09-2.34,11.3-4.55,21.95-6.83,32.95Z" style="fill:#226432; stroke-width:0px;"/><path d="m1670.9,529.64c0-20.18,9.82-35.55,24.58-47.96,9.48-7.97,20.51-13.3,32.86-16.19,18.88-4.43,35.79.18,50.82,10.96,14.45,10.37,24.54,24.56,30.21,41.72,1.36,4.11,2.03,6.77-3.38,7.68-2.4.41-4.58,1.95-6.93,2.77-6.5,2.25-6.26,2.11-8.83-4.77-6.14-16.48-15.87-29.63-33.63-35.08-13.19-4.05-25.02-.19-36.2,6.43-15.77,9.34-26.49,22.35-26.14,41.59.21,11.68,5.8,21.72,13.52,30.28,4.01,4.44,7.98,9.06,13.19,12.3,1.25.77,2.15,1.64.48,3.29-2.71,2.67-5.32,5.51-7.5,8.6-2.95,4.18-5.9,3.58-9.09.63-14.75-13.65-27.85-28.4-32.34-48.84-.54-2.45-1.25-4.87-1.57-7.35-.26-1.99-.05-4.04-.05-6.07Z" style="fill:#226432; stroke-width:0px;"/><path d="m1316.84,160.06c-10.78-4.1-21.9-6.81-32.44-11.3-2.27-.96-2.49-.91-1.71-3.42,1.68-5.45,4.21-10.65,4.88-16.33,30.15,10.21,60.19,20.38,90.23,30.55,2.64.89,4.15,1.65,2.63,5.33-2.02,4.89-4.52,9.76-4.87,15.1-10.73-3.54-21.43-6.85-31.96-10.66-3.48-1.26-4.42-.93-5.65,2.77-8.18,24.71-16.75,49.29-25.16,73.92-2.65,7.76-5.16,15.57-7.92,23.29-.69,1.95-1.44,3.71-4.71,2.32-6.19-2.64-12.75-4.4-19.21-6.55,11.97-35.01,23.95-70.05,35.9-105.01Z" style="fill:#226432; stroke-width:0px;"/><path d="m1442.55,338.51c10.21-15.53,20.33-30.93,30.47-46.31,13.2-20.03,26.43-40.03,39.58-60.1,1.52-2.32,2.68-2.71,5.08-.96,5.49,4,11.24,7.64,16.82,11.39-18.69,28.43-37.41,56.74-55.92,85.18-4.71,7.24-4.39,7.41,2.81,12.19,11.19,7.43,22.35,14.91,33.55,22.34,2.41,1.6,3.6,2.89,1.14,5.88-3.39,4.12-6.04,8.85-8.85,13.08-21.75-14.36-43.37-28.63-64.68-42.7Z" style="fill:#226432; stroke-width:0px;"/><path d="m1263.33,125.65c-3.15,13.54-6.1,26.61-9.25,39.63-6.55,27.07-13.32,54.08-19.68,81.19-.91,3.88-1.85,5.03-5.76,3.76-5.42-1.76-10.98-3.11-16.53-4.39-1.91-.44-2.03-.58-1.5-2.7,5.98-24.09,11.69-48.25,17.49-72.39,3.88-16.15,7.91-32.26,11.6-48.45.78-3.44,1.67-4.06,5.1-2.92,5.06,1.68,10.44,2.38,15.61,3.79,1.13.31,4.1-.09,2.93,2.47Z" style="fill:#226432; stroke-width:0px;"/><path d="m1827.21,1085.64c12.99,1.89,26.17,2.49,39.26,4.21,8.58,1.12,17.31,1.63,25.97,2.52,13.11,1.34,26.2,2.94,39.31,4.31,5.42.56,10.87,1.04,16.31,1.09,2.93.03,3.62.89,3.7,3.74.16,5.69-1.71,11.15-1.34,16.87.19,3.02-2.03,4.31-5.14,3.78-9.98-1.7-20.07-2.38-30.14-3.36-12.21-1.19-24.34-3.27-36.56-4.16-8.14-.6-16.22-1.63-24.33-2.42-10.61-1.03-21.2-2.28-31.82-3.23-2.11-.19-2.43-1.09-2.31-2.76.41-5.8.71-11.61,1.25-17.4.34-3.66,2.9-3.84,5.84-3.19Z" style="fill:#226432; stroke-width:0px;"/><path d="m1685.1,466.16c-3.62,4.39-7.91,8.02-12.47,11.24-9.68-10.61-19.29-21.46-29.31-31.92-3.37-3.51-3.5-6.02.48-8.41,3.03-1.82,5.03-5.98,7.94-6.29,3.25-.34,4.46,4.54,6.93,6.85,4.78,4.48,9.3,9.32,13.38,14.44,4,5.03,8.68,9.38,13.06,14.08Z" style="fill:#226432; stroke-width:0px;"/></g><g id="i"><path d="m455.74,479.36c-12.59-26.35-24.94-52.19-37.26-78.03-6.78-14.21-13.37-28.51-20.37-42.61-1.34-2.7-.94-4,1.02-5.79,6.07-5.55,12.12-11.13,17.96-16.92,1.71-1.7,2.95-1.24,4.54-.35,17.22,9.52,34.45,19.02,51.67,28.55,22.08,12.22,44.15,24.45,66.31,36.73-6.06,4.37-10.41,10.68-16.55,15.2-2.72,2-4.15,1.52-6.5.18-8.85-5.05-17.85-9.83-26.66-14.95-2.56-1.49-4.01-1.57-6.28.71-7.75,7.78-15.75,15.33-23.84,22.76-2.62,2.41-2.82,4.4-1.16,7.49,4.83,9.01,9.38,18.18,13.91,27.34.7,1.41,2.2,3.19-.18,4.66-6.28,3.88-10.39,10.19-16.61,15.02Zm-34.84-119.25c9.6,16.85,17.83,34.16,25.97,51.99,8.58-8.01,16.63-15.53,24.63-23-17.13-9.87-34.31-18.54-50.6-28.99Z" style="fill:#226432; stroke-width:0px;"/><path d="m659.79,175.68c15.01-6.15,29.85-12.26,44.72-18.3,7.6-3.09,15.4-5.73,22.82-9.18,3.58-1.66,3.81.88,4.53,2.56,2.1,4.91,3.89,9.96,5.72,14.72-15.05,6-30.08,12.12-45.22,17.94-2.96,1.14-2.66,2.83-1.87,4.82,3.17,7.95,6.83,15.72,9.58,23.81,1.36,4,3.45,3.76,6.19,2.65,12.39-5.05,24.81-10.06,37.05-15.46,3.14-1.38,4.55-.91,5.68,2.04,1.46,3.83,2.76,7.75,4.56,11.41,1.4,2.85.57,3.42-2.17,4.45-13.18,4.97-26.24,10.27-39.31,15.53-1.71.69-3.27,1.13-1.92,4.14,4.44,9.92,8.49,20.03,12.16,30.26,1.05,2.92,2.16,2.56,4.08,1.78,15.01-6.13,30.06-12.18,45-18.48,2.67-1.13,3.78-.65,4.63,1.89.84,2.53,1.94,4.98,2.83,7.49,2.92,8.19,2.88,8.13-5.07,11.28-20.56,8.14-41.17,16.17-61.59,24.67-3.44,1.43-4.21.06-5.12-2.18-13.8-34.24-27.57-68.49-41.33-102.75-2.04-5.09-4.03-10.19-5.96-15.08Z" style="fill:#226432; stroke-width:0px;"/><path d="m405.86,500.82c-6.78-10.16-13.96-19.97-20.57-30.18-12.92-19.98-25.89-39.94-39.02-59.78-1.26-1.9-1.3-2.53.16-4.23,4.21-4.92,8.04-10.17,12.1-15.22,2.82-3.51,3.62-.2,4.72,1.57,7,11.24,13.96,22.49,20.94,33.74,16.12,25.98,32.25,51.96,48.33,77.97.74,1.21,1.69,2.44-.1,4.13-5.41,5.09-9.75,11.11-14.04,17.15-1.23,1.74-2.6,1.75-4.72.9-14.39-5.77-28.87-11.31-43.34-16.88-26.11-10.06-52.23-20.11-78.37-30.08-2.99-1.14-4.25-2.1-1.52-5.06,4.05-4.38,8.08-8.86,11.45-13.75,2.12-3.08,4.05-2.91,6.84-1.73,13.8,5.84,27.64,11.57,41.43,17.43,18.54,7.88,37.45,14.9,55.71,24.05Z" style="fill:#226432; stroke-width:0px;"/><path d="m753.2,138.69c8.76-2.38,16.82-4.61,24.91-6.74,1.5-.4,2.83.14,3.87,1.44,13.05,16.29,26.12,32.55,39.61,49.34,1.37-15,4.76-29.2,6.99-43.6.99-6.38,3.09-12.55,3.39-19.07.1-2.08,1.8-2.22,3.51-2.66,7.53-1.95,14.99-4.15,23.3-6.49-2.63,9.62-5.11,18.65-7.57,27.69-4.97,18.22-9.84,36.47-14.96,54.65-1.07,3.8.9,6.85,1.65,10.1,3.36,14.42,7.11,28.75,10.99,43.04.54,1.99.64,2.27-1.41,2.75-6.41,1.51-12.74,3.37-19.13,5.02-2.83.73-2.63-1.93-2.99-3.27-4.17-15.68-8.24-31.39-12.18-47.13-.33-1.32-.74-2.34-1.63-3.29-9.97-10.67-19.94-21.33-29.86-32.04-8.68-9.36-17.31-18.76-25.98-28.12-.46-.5-1.16-.77-2.52-1.64Z" style="fill:#226432; stroke-width:0px;"/><path d="m694.71,302.12c.34,2.32-1.19,2.2-2.03,2.67-11.58,6.43-23.19,12.8-34.78,19.22-9.08,5.02-18.14,10.07-27.19,15.13-1.98,1.11-3.13,1.89-4.74-1.16-6.61-12.49-13.78-24.68-20.66-37.03-13.15-23.6-26.23-47.25-39.39-70.85-1.4-2.5-2.14-4.18,1.43-5.78,5.21-2.34,10.09-5.42,15.11-8.19,1.95-1.08,2.92-1.18,4.31,1.41,12.49,23.16,25.28,46.15,37.96,69.2,3.97,7.21,7.94,14.41,11.8,21.68,1.22,2.29,2.17,3.1,4.91,1.55,13.56-7.65,27.35-14.88,40.86-22.59,2.7-1.54,3.72-.92,5.08,1.17,2.64,4.06,3.83,8.92,7.05,12.67.32.37.32,1.01.29.89Z" style="fill:#226432; stroke-width:0px;"/><path d="m551.21,393.55c-23.71-33.32-47.5-66.8-71.34-100.25-4.54-6.37-4.63-6.31,1.69-10.59,1.04-.7,2.22-1.24,3.12-2.08,2.98-2.78,6.64-6.88,9.85-6.22,2.94.6,5.05,5.64,7.35,8.86,18.11,25.42,36.2,50.84,54.22,76.33,2.88,4.07,4.88,2.49,8.09.13,12.7-9.35,25.71-18.28,38.68-27.42,2.93,3.98,5.81,8.34,9.16,12.3,2.45,2.89,1.46,4.71-1.02,6.48-9.05,6.47-18.12,12.91-27.2,19.34-10.8,7.66-21.6,15.32-32.6,23.12Z" style="fill:#226432; stroke-width:0px;"/></g><g id="j"><path d="m219.88,775.61c7.58-9.59,17.13-11.75,27.7-11.55,8.65.16,17.3.05,25.95.03,4.68-.01,9.39.46,14.08-1.23-1.79,7.1-3.46,13.79-5.16,20.46-.73,2.86-2.15,4.22-5.58,4.1-9.56-.33-19.15.13-28.71-.17-17.28-.54-24.51,5.46-28.43,21.57-1.66,6.85-1.83,6.88,5.08,8.71,13.62,3.61,27.23,7.27,40.92,10.61,3.76.92,4.78,2.9,3.38,5.94-1.97,4.29-3.17,8.88-3.74,13.34-.63,4.87-2.98,4.75-6.22,3.9-14.31-3.77-28.58-7.68-42.89-11.47-24.48-6.49-48.97-12.95-73.47-19.36-2.29-.6-3.22-1.21-2.96-4.04,1.61-18.16,5.4-35.86,13.06-52.34,6.07-13.05,15.85-22.39,31.72-22.11,18.1.32,34.28,12.72,35.27,33.62Zm-13.47,11.87c1.05-1.84-.78-4.21-1.44-6.49-2.27-7.85-7.97-12.76-15.86-14.35-6.62-1.34-12.92-.2-17.81,5.31-5.83,6.56-7.48,14.63-9.49,22.84-1.29,5.26.52,6.49,4.72,7.55,10.36,2.6,20.66,5.48,31.04,8.04,1.23.3,3.62,1.27,4.17-1.1,1.62-6.95,4.14-13.7,4.67-21.79Z" style="fill:#226432; stroke-width:0px;"/><path d="m242.12,866.46c4.7.5,9.51,1,14.32,1.52,3.23.35,5.33.24,4.36,5.4-2.37,12.56-3.18,25.41-4.83,38.12-1.27,9.81-2.92,19.56-4.29,29.36-.27,1.97-.04,4.01-.04,6.23-10.83-1.35-21.3-2.58-31.75-3.98-12.49-1.68-24.95-3.58-37.43-5.26-9.66-1.29-19.34-2.41-29.02-3.56-9.68-1.15-19.38-2.16-29.04-3.47-2.03-.28-2.94-1.2-2.42-4.34,2.07-12.63,3.12-25.43,4.73-38.14,1.33-10.54,2.98-21.03,4.34-31.56.22-1.73.9-2.26,2.43-2.05,5.35.73,10.69,1.49,16.04,2.22,1.1.15,1.43.55,1.24,1.77-1.79,11.91-3.64,23.82-5.16,35.77-.43,3.4-.26,6.87-1.23,10.22-1.14,3.91,1.91,4.73,4.42,5.13,6.41,1.01,12.9,1.6,19.36,2.33.91.1,1.87-.09,2.76.08,6.76,1.31,7.03.91,7.77-6.21,1.31-12.56,2.89-25.1,4.42-37.64.37-3.05,2.39-4.82,5.24-3.6,3.63,1.56,7.48,1.07,11.17,1.77,3.49.66,3.82,2,3.38,4.56-2.41,14.04-4.01,28.18-5.7,42.32-.27,2.24-.03,2.98,1.97,3.12,11.34.8,22.56,2.46,33.75,4.39,1.82.31,1.95-.83,2.13-2.29,1.41-11.63,2.87-23.25,4.41-34.87.76-5.71,1.74-11.39,2.67-17.36Z" style="fill:#226432; stroke-width:0px;"/><path d="m222.52,1044.14c5.5-9.1,7.21-19.14,9.14-29.14,2.28-11.8-5.61-24.63-17.32-26.23-5.75-.79-11.21,2.03-14.71,7.37-4.24,6.47-6.98,13.63-10.04,20.69-5.22,12.06-11.96,23.66-25.26,27.68-16.37,4.94-34.11.67-43.12-19.92-7.45-17.04-5.93-34.46-.05-51.72,1.16-3.4,2.99-5.19,6.69-3.23.15.08.38-.03.55.03,4.03,1.42,9.04,1.84,11.83,4.55,3.45,3.36-2.07,6.89-2.41,10.68-.8,8.82-4.03,17.44-.3,26.54,2.29,5.58,5.65,9.11,11.36,10.08,6.39,1.09,11.67-.88,15.44-6.56,4.69-7.07,7.49-15.01,11.04-22.61,5.57-11.94,12.36-22.61,26.28-26.45,16.56-4.57,34.78,2.34,42.6,17.9,10.64,21.17,8.19,42.26-.34,63.35-1.02,2.51-2.62,2.68-4.69,2.07-5.43-1.61-10.84-3.29-16.67-5.07Z" style="fill:#226432; stroke-width:0px;"/><path d="m248.02,1058.48c.55,6.42,1.01,12.68,2.38,18.87.99,4.47-.37,7.62-5.19,9.54-8.62,3.42-16.93,7.63-25.46,11.3-2.79,1.2-3.94,2.87-3.56,5.86,1.53,11.8,2.98,23.6,4.47,35.4.31,2.47,2.12,2.38,4.04,2.69,10.62,1.72,21.22,3.62,31.83,5.44,1.17.2,2.59-.37,2.8,1.67.66,6.46,1.42,12.92,2.22,19.36.41,3.28-1.15,3.62-3.88,3.11-19.55-3.67-39.13-7.16-58.67-10.91-20.4-3.91-40.76-8.03-61.14-12.05-.18-.04-.37,0-.55-.04-11.5-1.9-11.34-1.91-11.83-13.2-.2-4.64-1.19-9.26-1.96-13.86-.53-3.19-.05-5.4,3.38-6.93,11.11-4.93,22.07-10.17,33.07-15.33,26.38-12.39,52.74-24.82,79.12-37.19,2.9-1.36,5.91-2.48,8.91-3.73Zm-49.83,47.9c-17.95,8.47-35.42,16.73-53.35,24.09,18.04,1.63,35.6,5.25,53.19,8.52,4.3.8,4.12-.62,3.79-3.38-1.13-9.48-2.35-18.95-3.63-29.23Z" style="fill:#226432; stroke-width:0px;"/><path d="m264.49,1176.63c.93,6.38,2.76,12.33,4.81,18.16,1.52,4.34.6,6.99-3.45,9.24-9.22,5.11-18.39,10.34-27.35,15.9-8.64,5.36-14.5,12.22-11.31,24.78,3.12,12.31,2.84,12.39,15.28,9.05,12.39-3.33,24.8-6.6,37.14-10.08,2.42-.68,3.62.17,3.93,2.16.91,5.85,2.83,11.41,4.61,17,.8,2.5-.15,3.47-2.12,4.01-17.34,4.83-34.7,9.64-52.06,14.4-22.01,6.04-44.05,11.96-66.01,18.17-3.15.89-3.66.18-4.98-2.6-6.41-13.48-10.64-27.66-13.58-42.15-2.9-14.29-3.06-28.96,8.96-39.54,15.25-13.43,36.86-13.97,51.26,3.48.56.67.94,1.74,1.95,1.42.55-.17,1.14-1.03,1.25-1.66,2.24-12.57,12.24-17.87,21.86-23.62,9.95-5.95,20.37-11.14,29.8-18.13Zm-96.89,72.9c-.51,7.34,3,13.82,4.92,20.67.85,3.06,3.31,2.66,5.27,2.13,11.01-2.96,21.93-6.25,32.95-9.17,3.03-.8,3.21-1.97,2.23-4.62-1.72-4.67-2.96-9.5-4.5-14.24-2.25-6.91-6.85-12.13-13.4-14.78-11.7-4.73-29.28,3.89-27.47,20.01Z" style="fill:#226432; stroke-width:0px;"/><path d="m174.66,1335.92c5.01-1.97,10.25-3.78,15.24-6.11,2.55-1.19,3.27-.74,4.28,1.76,5.76,14.21,11.8,28.3,17.58,42.5.93,2.27,1.95,1.88,3.57,1.19,9.03-3.82,18.05-7.65,27.13-11.33,2.85-1.16,3.67-2.78,2.45-5.61-5.39-12.44-10.72-24.9-16.1-37.34-.85-1.97-2.18-3.58,1.52-4.44,3.59-.83,7.18-2.39,10.27-4.39,3.99-2.58,5.2-.96,6.68,2.66,4.86,11.88,10.12,23.59,15.02,35.45,1.3,3.16,2.2,4.15,5.92,2.48,13.82-6.22,27.94-11.78,41.84-17.83,4.01-1.75,6.26-1.69,7.67,3.12,1.45,4.93,3.54,9.74,5.87,14.33,1.08,2.12.77,2.7-1.14,3.5-17.11,7.17-34.2,14.39-51.29,21.6-16.1,6.8-32.2,13.61-48.29,20.44-5.58,2.37-11.24,4.58-16.63,7.31-2.73,1.38-2.66-.93-3.07-1.87-5.68-13.09-11.23-26.23-16.78-39.37-3.95-9.36-7.85-18.75-11.74-28.05Z" style="fill:#226432; stroke-width:0px;"/></g></g><g id="k"><path d="m1718.28,727.38c-37.2-87.95-90.45-166.93-158.27-234.76-67.83-67.82-146.81-121.07-234.76-158.27-91.07-38.52-187.79-58.05-287.49-58.05s-196.43,19.53-287.49,58.05c-87.95,37.2-166.94,90.45-234.76,158.27-67.82,67.83-121.08,146.81-158.28,234.76-38.52,91.07-58.05,187.8-58.05,287.49s19.53,196.43,58.05,287.49c10.3,24.34,21.82,47.98,34.54,70.9,6.12,11.03,12.52,21.88,19.2,32.57l13.94-8.26,10.14-6c-6.7-10.66-13.12-21.52-19.24-32.56-56.68-102.03-88.98-219.38-88.98-344.13,0-392.01,318.93-710.93,710.94-710.93s710.93,318.92,710.93,710.93c0,125.21-32.53,242.95-89.59,345.23-6.55,11.73-13.4,23.26-20.59,34.57l23.72,14.86c7.18-11.32,14.03-22.86,20.58-34.58,13.09-23.44,24.93-47.65,35.48-72.59,38.52-91.06,58.05-187.79,58.05-287.49s-19.53-196.42-58.05-287.49Z" style="fill:#226432; stroke-width:0px;"/></g></svg>